<svg width="117" height="113" viewBox="0 0 117 113" fill="none" xmlns="http://www.w3.org/2000/svg">
<path d="M21.6367 65.3086C23.6665 61.8378 28.5092 62.4577 30.2832 66.0664C41.6654 89.2194 74.4068 89.8075 86.6104 67.0781C88.5123 63.5357 93.374 63.0898 95.2783 66.6309C95.8329 67.6623 96.3465 68.7199 96.8164 69.8008C98.9846 74.7871 100.155 80.1094 100.311 85.4727C90.5752 98.3356 75.142 106.647 57.7666 106.647C40.7568 106.647 25.6074 98.6825 15.8438 86.2793C15.9051 80.1334 17.3026 74.0342 19.9863 68.4209C20.4947 67.3576 21.0456 66.3195 21.6367 65.3086ZM57.7666 0C87.2162 0 111.091 23.8736 111.091 53.3232C111.091 56.1169 110.874 58.8604 110.46 61.5381C107.444 55.2381 103.337 49.5679 98.3643 44.7734C92.0601 38.6958 82.2421 41.7116 78.0977 49.4307L72.6592 59.5605C66.5575 70.9253 50.1863 70.6313 44.4951 59.0547L39.4229 48.7363C35.5575 40.8734 25.8535 37.5063 19.3359 43.3535C13.6756 48.4317 9.02578 54.6077 5.69922 61.5654C5.54266 61.8929 5.38945 62.2219 5.23926 62.5518C4.71629 59.5543 4.44336 56.4704 4.44336 53.3232C4.44355 23.8737 28.3171 0.000140208 57.7666 0ZM58.084 28.5117C52.2512 28.5117 47.5225 33.2486 47.5225 39.0918C47.5226 44.9349 52.2513 49.6719 58.084 49.6719C63.9165 49.6717 68.6444 44.9348 68.6445 39.0918C68.6445 33.2487 63.9166 28.5119 58.084 28.5117Z" fill="#111111"/>
</svg>
