<svg width="102" height="65" viewBox="0 0 102 65" fill="none" xmlns="http://www.w3.org/2000/svg">
<path d="M60.2703 9.28571C60.2703 14.4141 56.1187 18.5714 50.9975 18.5714C45.8764 18.5714 41.7248 14.4141 41.7248 9.28571C41.7248 4.15735 45.8764 0 50.9975 0C56.1187 0 60.2703 4.15735 60.2703 9.28571Z" fill="white"/>
<path fill-rule="evenodd" clip-rule="evenodd" d="M17.5481 35.027C17.9945 34.0938 18.4782 33.1825 18.9973 32.2952C20.7794 29.249 25.0312 29.793 26.5888 32.9602C36.5823 53.281 65.3293 53.7972 76.044 33.8483C77.714 30.739 81.9825 30.3481 83.6544 33.4563C84.1414 34.3617 84.5922 35.2897 85.0048 36.2383C88.3265 43.8746 88.9887 52.4073 86.8849 60.4658C86.3077 62.6768 87.8755 65 90.1576 65H99.0199C99.6392 65 100.185 64.5887 100.342 63.9887C103.234 52.9083 102.324 41.1758 97.7566 30.6759C95.0564 24.4683 91.1707 18.9046 86.3637 14.2721C80.8287 8.93796 72.2082 11.5852 68.5695 18.36L63.7944 27.2505C58.437 37.225 44.0635 36.9668 39.0667 26.8065L34.613 17.7502C31.2191 10.8492 22.699 7.89411 16.9766 13.0261C12.0068 17.483 7.9244 22.9037 5.00367 29.0103C0.0633772 39.3395 -1.26655 51.0317 1.22751 62.2088C1.59853 63.8716 3.10759 65 4.80896 65H10.5123C13.4303 65 15.4382 62.0231 14.8018 59.1714C12.988 51.0425 13.9552 42.5391 17.5481 35.027ZM22.135 23.904C22.1352 23.9044 22.1353 23.9043 22.135 23.904C22.1181 23.8807 22.1219 23.8773 22.135 23.904ZM80.8191 24.9578C80.8332 24.9316 80.8369 24.9352 80.8191 24.9578C80.8188 24.9581 80.8189 24.9582 80.8191 24.9578Z" fill="white"/>
</svg>
