<svg xmlns="http://www.w3.org/2000/svg" viewBox="0 0 1320 954"><path fill="currentColor" fill-rule="evenodd" d="M635 2.017c-.982 1.271-4.436 2.606-10 3.866-14.051 3.182-26.215 8.633-35.41 15.867-1.573 1.238-3.362 2.258-3.975 2.267-1.745.026-25.442 24.336-28.939 29.687-1.724 2.638-4.074 6.596-5.223 8.796s-2.796 5.35-3.661 7c-4.719 9.003-7.795 16.288-7.813 18.5-.012 1.375-1.191 5.65-2.622 9.5-2.406 6.477-2.636 8.531-3.078 27.5l-.478 20.5 4.039 14.698c2.222 8.083 4.903 16.408 5.958 18.5 6.704 13.288 8.67 16.82 11.293 20.279 5.604 7.389 20.902 23.768 24.988 26.754 2.431 1.776 5.996 4.383 7.921 5.793 6.35 4.649 11.455 7.739 14.499 8.775 1.651.561 4.206 2.018 5.68 3.236s4.398 2.525 6.5 2.904c2.101.378 6.521 1.729 9.821 3 9.035 3.482 32.598 5.204 49.339 3.605 12.728-1.215 33.598-6.655 37.226-9.704.861-.723 3.111-1.837 5-2.476 1.889-.638 5.211-2.443 7.382-4.012s4.361-2.852 4.868-2.852 2.428-1.237 4.27-2.75l9.442-7.75c7.274-5.967 18.02-17.715 20.352-22.25.92-1.787 2.116-3.25 2.659-3.25s2.096-2.363 3.45-5.25 2.885-5.925 3.4-6.75c2.539-4.064 7.98-16.931 8.546-20.207.352-2.039 1.635-5.864 2.851-8.5 2.081-4.515 2.21-6.158 2.208-28.293-.002-23.045-.055-23.653-2.748-31.378-1.51-4.332-2.745-8.742-2.745-9.799s-.724-3.323-1.61-5.035c-.885-1.713-2.397-5.403-3.36-8.201s-2.826-6.763-4.14-8.812c-1.315-2.049-4.19-6.544-6.39-9.989C760.375 49.327 736.388 24 734.395 24c-.616 0-2.819-1.35-4.895-3s-4.354-3-5.061-3-2.558-1.065-4.112-2.367c-3.847-3.221-14.209-7.416-23.596-9.552-4.652-1.058-8.689-2.632-10.064-3.924-2.222-2.088-3.066-2.156-26.231-2.12-22.492.035-24.027.155-25.436 1.98M212.5 210.174c-9.026.434-16.665 1.397-21.5 2.709-4.125 1.119-10.65 2.562-14.5 3.206s-9.025 2.173-11.5 3.397c-2.475 1.225-6.192 2.489-8.26 2.809s-4.996 1.463-6.509 2.54-4.739 2.494-7.171 3.149-5.846 2.276-7.586 3.603c-1.739 1.327-3.57 2.432-4.068 2.455-.841.04-8.488 4.742-18.159 11.167-5.083 3.377-25.843 23.736-30.377 29.791-7.384 9.86-12.055 17.898-19.76 34-1.711 3.575-3.111 7-3.11 7.61 0 .611-1.076 2.696-2.39 4.633-1.315 1.938-3.068 5.713-3.896 8.39s-2.409 7.117-3.515 9.867c-5.125 12.748-7.236 18.85-8.687 25.104-.862 3.717-2.009 7.29-2.549 7.94s-1.856 5.276-2.925 10.278-2.603 10.369-3.408 11.928c-.806 1.558-1.942 6.258-2.524 10.445-.583 4.186-1.908 9.793-2.946 12.458-1.037 2.666-2.2 7.772-2.584 11.347s-1.971 12.8-3.526 20.5c-1.556 7.7-3.143 17.15-3.527 21-.383 3.85-1.547 10.681-2.585 15.181-1.038 4.499-2.351 13.049-2.918 19-.567 5.95-1.696 14.644-2.508 19.319s-2.167 15.7-3.009 24.5c-.841 8.8-1.974 17.627-2.517 19.616S3 573.506 3 575.675c0 2.168-.661 4.816-1.468 5.884-1.258 1.663-1.473 12.073-1.5 72.753L0 725.124l2.475 8.688c1.727 6.063 2.798 13.371 3.543 24.188.587 8.525 1.7 17.975 2.473 21s1.935 9.55 2.582 14.5 2.01 11.7 3.03 15 2.519 9.193 3.33 13.096c.811 3.902 2.424 9.504 3.584 12.448 1.161 2.943 2.537 7.625 3.058 10.404.522 2.779 1.834 6.26 2.917 7.736 1.084 1.476 2.439 4.778 3.013 7.338s2.157 6.295 3.519 8.299 2.479 4.326 2.483 5.161c.003.835.916 2.868 2.027 4.518s2.923 4.8 4.025 7c6.209 12.393 22.632 32.796 30.913 38.407 2.765 1.873 5.028 3.762 5.028 4.196 0 1.186 10.226 7.738 14.107 9.038 1.866.625 4.35 2 5.519 3.055s4.319 2.52 7 3.254c2.681.735 6.634 2.095 8.786 3.024 12.789 5.52 60.242 4.874 78.466-1.068 4.057-1.323 8.107-2.408 9-2.41.892-.003 3.647-1.351 6.122-2.996s4.993-2.993 5.595-2.996c.602-.002 1.951-.95 2.998-2.106 1.046-1.157 3.253-2.796 4.905-3.644 4.156-2.133 16.474-12.645 19.502-16.643l6.608-8.721c2.26-2.981 4.444-6.539 4.854-7.905s1.847-4.404 3.193-6.75 3.085-7.521 3.864-11.5a892 892 0 0 1 2.931-14.235c2.402-11.097 1.898-28.1-1.483-50-.594-3.85-1.69-12.4-2.435-19s-2.154-15.375-3.131-19.5c-1.484-6.262-1.787-12.368-1.839-37l-.062-29.5 2.75-5.688c1.513-3.129 2.75-6.33 2.75-7.115s.836-2.5 1.859-3.812c1.022-1.312 2.568-3.77 3.436-5.463 4.988-9.727 18.551-19.119 33.705-23.34 8.727-2.43 18.576-2.681 25.568-.65 2.713.787 7.182 1.732 9.932 2.099 4.208.562 16.08 5.282 21.5 8.547.825.497 3.525 1.985 6 3.305s5.357 3.349 6.405 4.509c1.048 1.159 2.522 2.108 3.275 2.108 1.248 0 7.392 5.173 19.253 16.209 9.576 8.911 19.496 20.998 27.731 33.791 2.301 3.575 5.032 7.625 6.068 9 2.84 3.77 10.397 16.937 14.348 25 1.213 2.475 3.266 5.772 4.563 7.327s2.359 3.579 2.361 4.5 1.351 3.698 2.996 6.173 2.993 4.958 2.996 5.518c.002.56 1.229 2.81 2.726 5 2.651 3.879 3.787 5.822 8.122 13.887 1.154 2.147 2.968 4.847 4.031 6s2.655 3.67 3.537 5.595 2.613 4.942 3.846 6.705 3.932 5.813 5.998 9c2.065 3.187 5.325 7.82 7.245 10.295s4.684 6.3 6.144 8.5c6.726 10.132 37.838 43.5 40.56 43.5.432 0 3.6 2.286 7.04 5.08s8.361 6.16 10.934 7.481c2.574 1.32 4.943 2.827 5.264 3.347s2.266 1.484 4.321 2.142 4.636 1.985 5.736 2.95 3.749 2.314 5.886 2.999 5.463 2.316 7.39 3.623 4.306 2.378 5.288 2.378 5.156 1.35 9.277 3 8.692 3 10.158 3 5.891 1.094 9.833 2.432c10.489 3.559 29.341 4.979 56.663 4.27 21.239-.551 23.096-.756 33.003-3.643 5.774-1.682 11.526-3.059 12.783-3.059s4.483-1.114 7.17-2.475c2.686-1.361 6.833-2.766 9.216-3.121s6.397-1.941 8.921-3.525 5.223-2.881 6-2.883c.776-.003 3.437-1.351 5.912-2.996s5.253-2.993 6.173-2.996c.921-.002 2.946-1.066 4.5-2.363 1.555-1.298 4.177-3.101 5.827-4.007 13.039-7.16 41.736-34.078 54.246-50.884 3.582-4.812 6.871-8.75 7.309-8.75.804 0 3.693-4.554 8.405-13.25 1.415-2.612 3.007-4.75 3.537-4.75s1.899-1.687 3.044-3.75 3.841-6.675 5.99-10.25 4.648-8.071 5.553-9.992c.905-1.92 2.718-4.767 4.03-6.326 1.312-1.56 2.386-3.299 2.386-3.865s2.096-4.694 4.657-9.173c7.619-13.324 10.101-17.827 13.308-24.144 1.676-3.3 4.394-8.025 6.042-10.5s3.898-6.371 5.001-8.659c1.102-2.287 3.819-6.787 6.036-10s4.789-6.966 5.714-8.341c6.209-9.223 19.131-24.281 25.645-29.885 2.803-2.411 6.065-5.336 7.249-6.5s4.5-3.69 7.37-5.615 6.686-4.737 8.48-6.25 3.653-2.752 4.13-2.754 2.893-1.351 5.368-2.996 5.183-2.993 6.018-2.996c.835-.002 3.155-1.116 5.155-2.476s6.943-3.156 10.982-3.993c4.04-.837 8.917-1.975 10.838-2.528 5.186-1.495 16.752-1.199 23.007.588 3.025.864 7.75 2.145 10.5 2.846 6.077 1.548 12.275 5.657 19.216 12.738 9.798 9.994 13.679 18.868 17.418 39.821 1.497 8.392 1.107 36.16-.653 46.5-.843 4.95-2.381 16.65-3.418 26s-2.663 20.375-3.612 24.5c-1.343 5.838-1.751 12.598-1.838 30.5l-.113 23 3.445 10c1.895 5.5 4.199 11.125 5.119 12.5.921 1.375 2.003 3.625 2.406 5s1.938 4.075 3.411 6 3.399 4.625 4.28 6c2.564 4 12.625 14.13 15.78 15.889 1.59.886 5.299 3.46 8.24 5.719 2.942 2.26 6.468 4.443 7.834 4.853 1.367.409 4.06 1.65 5.985 2.758 4.356 2.506 21.953 8.258 28.029 9.163 19.457 2.897 54.767 1.843 61.902-1.846 1.634-.845 5.639-2.159 8.901-2.92 3.263-.761 7.665-2.561 9.782-4s4.584-2.616 5.481-2.616c.896 0 3.329-1.35 5.405-3s4.216-3 4.755-3c.924 0 4.019-2.438 11.443-9.011 1.758-1.557 3.783-3.204 4.5-3.66.716-.456 3.974-3.979 7.24-7.829s7.013-8.125 8.327-9.5c4.92-5.147 22.235-37.208 22.235-41.171 0-1.05.902-3.677 2.004-5.837 1.103-2.161 2.631-6.531 3.398-9.711.766-3.179 2.069-7.356 2.896-9.281s2.025-7.1 2.663-11.5 1.984-10.475 2.993-13.5 2.356-9.775 2.993-15 2.031-14.225 3.098-20 2.554-20.175 3.305-32c1.063-16.722 1.779-22.389 3.223-25.5l1.858-4 .608 7c.334 3.85.612-25.625.616-65.5s-.253-69.8-.573-66.5l-.582 6-2.189-8c-1.35-4.937-2.614-13.909-3.3-23.433-1.037-14.391-1.575-19.223-4.02-36.067-.519-3.575-1.418-10.55-1.998-15.5s-2.127-14.4-3.437-21c-1.309-6.6-2.628-14.925-2.929-18.5-.302-3.575-1.468-9.972-2.592-14.215s-2.454-11.668-2.954-16.5c-.501-4.832-1.815-11.079-2.921-13.884s-2.49-8.429-3.076-12.5-1.972-10.267-3.083-13.771c-1.111-3.503-2.516-9.578-3.122-13.5-.607-3.921-1.934-8.763-2.95-10.759-1.015-1.996-2.294-6.271-2.841-9.5s-2.131-8.571-3.518-11.871-2.533-6.904-2.546-8.008-1.094-4.029-2.401-6.5c-1.308-2.471-2.699-6.067-3.092-7.992-.392-1.925-1.764-5.127-3.048-7.116-1.283-1.988-2.837-5.485-3.452-7.77-.616-2.285-2.224-5.784-3.575-7.774s-2.456-4.169-2.456-4.842-1.35-2.922-3-4.998-3-4.552-3-5.503c0-.95-1.013-3.009-2.25-4.574-1.237-1.566-3.375-4.528-4.75-6.581-8.622-12.878-30.455-36.842-33.565-36.842-.655 0-1.779-.71-2.5-1.578-.72-.868-3.475-2.675-6.122-4.017-2.647-1.341-4.813-2.897-4.813-3.457 0-.561-2.138-1.935-4.75-3.055s-5.425-2.637-6.25-3.371c-.825-.735-3.517-1.873-5.983-2.53s-6.516-2.213-9-3.457-6.317-2.589-8.517-2.989-5.833-1.562-8.074-2.581c-2.24-1.02-8.315-2.55-13.5-3.401-5.184-.85-11.676-2.288-14.426-3.195-3.998-1.319-10.634-1.743-33.115-2.119l-28.116-.47-9.384 2.725c-5.162 1.499-12.261 3.339-15.776 4.088s-7.424 2.038-8.686 2.866c-1.263.827-4.417 1.979-7.008 2.56s-5.882 1.87-7.313 2.866c-1.431.995-4.084 2.311-5.896 2.925s-4.512 1.982-6 3.039-4.281 2.652-6.206 3.545c-3.581 1.659-5.095 2.664-17.833 11.829-13.012 9.363-37.978 32.999-42.667 40.393-1.1 1.735-4.025 5.888-6.5 9.228-2.475 3.341-5.85 8.377-7.5 11.192s-4.005 6.546-5.234 8.291-3.174 5.198-4.322 7.673-2.666 5.175-3.374 6-1.809 3.055-2.448 4.955c-.639 1.901-1.928 4.601-2.866 6-2.058 3.072-5.741 11.385-8.66 19.545-1.181 3.3-3.146 7.575-4.368 9.5s-2.491 5.075-2.819 7-1.391 4.634-2.362 6.019c-.971 1.386-2.097 3.636-2.501 5-.882 2.979-5.775 14.549-9.083 21.481-1.312 2.75-2.661 6.448-2.997 8.217s-1.703 4.827-3.038 6.794c-1.335 1.968-2.428 3.839-2.428 4.158 0 .536-5.896 14.273-8.082 18.831-.528 1.1-2.512 4.7-4.409 8s-4.815 8.7-6.485 12-4.27 7.871-5.78 10.159C830.523 491.391 825.821 498 825.06 498c-.478 0-2.006 1.913-3.394 4.25-2.984 5.026-17.041 19.542-25.9 26.746a1810 1810 0 0 0-9.266 7.581c-4.119 3.411-9.293 6.954-13.682 9.369-2.025 1.114-3.969 2.489-4.319 3.055-.349.566-2.22 1.691-4.157 2.5-1.936.81-4.865 2.603-6.508 3.985-1.643 1.383-3.744 2.514-4.669 2.514s-3.702 1.075-6.173 2.389-6.784 3.069-9.585 3.899c-2.8.831-6.945 2.456-9.21 3.611-2.264 1.156-4.957 2.101-5.983 2.101s-5.063 1.117-8.971 2.482c-3.907 1.366-11.073 2.945-15.924 3.509s-13.094 1.689-18.319 2.5c-12.148 1.884-29.998 1.905-41.5.049-4.95-.799-13.275-1.961-18.5-2.582s-11.422-1.97-13.772-2.997-6.786-2.332-9.859-2.901c-3.074-.568-7.002-1.901-8.729-2.962s-4.843-2.246-6.924-2.632-5.282-1.718-7.114-2.961-4.894-2.776-6.805-3.407-4.984-2.261-6.83-3.622c-1.846-1.362-3.743-2.476-4.216-2.476-1.199 0-12.718-7.114-15.751-9.728a1687 1687 0 0 0-9.996-8.463c-12.125-10.205-25.573-24.263-36.288-37.93-6.102-7.784-12.716-17.392-12.716-18.473 0-.353-1.35-2.18-3-4.059s-3-3.896-3-4.481c0-.996-4.465-8.858-9.577-16.866-1.229-1.925-2.531-4.931-2.893-6.681s-1.309-3.721-2.104-4.381-2.175-3.728-3.066-6.819c-.89-3.09-2.403-6.744-3.362-8.119-1.924-2.759-6.391-13.107-8.547-19.799-.762-2.365-2.283-5.561-3.381-7.102s-2.479-4.961-3.07-7.599-1.931-5.999-2.978-7.469-2.456-4.891-3.131-7.602c-.676-2.711-2.236-6.504-3.468-8.429s-2.535-4.931-2.896-6.681-1.306-3.721-2.101-4.381c-.796-.66-2.175-3.728-3.066-6.819-.89-3.09-2.402-6.744-3.358-8.119-.957-1.375-2.069-3.625-2.471-5s-1.747-4.075-2.988-6c-3.211-4.978-6.011-9.675-9.538-16-1.687-3.025-4.291-7.352-5.786-9.616a6229 6229 0 0 0-5.628-8.5c-10.556-15.908-39.669-45.362-50.091-50.677-2.2-1.123-4.566-2.978-5.258-4.124s-1.863-2.083-2.6-2.083-3.128-1.294-5.311-2.875c-2.183-1.582-5.063-3.221-6.4-3.644s-3.781-1.772-5.431-2.998-6.825-3.882-11.5-5.902-10.75-4.727-13.5-6.015-7.25-2.623-10-2.968-7.827-1.511-11.281-2.594c-9.265-2.903-31.822-4.028-56.719-2.83M.474 655c0 39.875.124 56.188.276 36.25.151-19.937.151-52.562 0-72.5C.598 598.813.474 615.125.474 655"/></svg>