<svg width="157" height="48" viewBox="0 0 157 48" fill="none" xmlns="http://www.w3.org/2000/svg">
<path d="M30.24 16.4C31.9467 16.4 33.4533 16.7333 34.76 17.4C36.0933 18.0667 37.1333 19.0933 37.88 20.48C38.6267 21.84 39 23.6 39 25.76V38H34V26.4C34 24.5067 33.5867 23.0933 32.76 22.16C31.9333 21.2267 30.7467 20.76 29.2 20.76C28.1067 20.76 27.1333 21 26.28 21.48C25.4533 21.96 24.8 22.6667 24.32 23.6C23.8667 24.5333 23.64 25.72 23.64 27.16V38H18.64V26.4C18.64 24.5067 18.2267 23.0933 17.4 22.16C16.5733 21.2267 15.3867 20.76 13.84 20.76C12.7467 20.76 11.7733 21 10.92 21.48C10.0933 21.96 9.44 22.6667 8.96 23.6C8.50667 24.5333 8.28 25.72 8.28 27.16V38H3.28V16.64H8.04V22.32L7.2 20.64C7.92 19.2533 8.96 18.2 10.32 17.48C11.7067 16.76 13.28 16.4 15.04 16.4C17.04 16.4 18.7733 16.8933 20.24 17.88C21.7333 18.8667 22.72 20.36 23.2 22.36L21.24 21.68C21.9333 20.08 23.08 18.8 24.68 17.84C26.28 16.88 28.1333 16.4 30.24 16.4ZM54.2284 38.28C52.0418 38.28 50.0951 37.8133 48.3884 36.88C46.6818 35.92 45.3351 34.6133 44.3484 32.96C43.3618 31.3067 42.8684 29.4267 42.8684 27.32C42.8684 25.1867 43.3618 23.3067 44.3484 21.68C45.3351 20.0267 46.6818 18.7333 48.3884 17.8C50.0951 16.8667 52.0418 16.4 54.2284 16.4C56.4418 16.4 58.4018 16.8667 60.1084 17.8C61.8418 18.7333 63.1884 20.0133 64.1484 21.64C65.1351 23.2667 65.6284 25.16 65.6284 27.32C65.6284 29.4267 65.1351 31.3067 64.1484 32.96C63.1884 34.6133 61.8418 35.92 60.1084 36.88C58.4018 37.8133 56.4418 38.28 54.2284 38.28ZM54.2284 34C55.4551 34 56.5484 33.7333 57.5084 33.2C58.4684 32.6667 59.2151 31.8933 59.7484 30.88C60.3084 29.8667 60.5884 28.68 60.5884 27.32C60.5884 25.9333 60.3084 24.7467 59.7484 23.76C59.2151 22.7467 58.4684 21.9733 57.5084 21.44C56.5484 20.9067 55.4684 20.64 54.2684 20.64C53.0418 20.64 51.9484 20.9067 50.9884 21.44C50.0551 21.9733 49.3084 22.7467 48.7484 23.76C48.1884 24.7467 47.9084 25.9333 47.9084 27.32C47.9084 28.68 48.1884 29.8667 48.7484 30.88C49.3084 31.8933 50.0551 32.6667 50.9884 33.2C51.9484 33.7333 53.0284 34 54.2284 34ZM77.6497 38.28C75.303 38.28 73.4897 37.68 72.2097 36.48C70.9297 35.2533 70.2897 33.4533 70.2897 31.08V11.92H75.2897V30.96C75.2897 31.9733 75.543 32.76 76.0497 33.32C76.583 33.88 77.3164 34.16 78.2497 34.16C79.3697 34.16 80.303 33.8667 81.0497 33.28L82.4497 36.84C81.863 37.32 81.143 37.68 80.2897 37.92C79.4364 38.16 78.5564 38.28 77.6497 38.28ZM66.7697 20.8V16.8H81.0097V20.8H66.7697ZM85.7628 38V16.64H90.7628V38H85.7628ZM88.2828 13.12C87.3495 13.12 86.5761 12.8267 85.9628 12.24C85.3761 11.6533 85.0828 10.9467 85.0828 10.12C85.0828 9.26667 85.3761 8.56 85.9628 8C86.5761 7.41333 87.3495 7.12 88.2828 7.12C89.2161 7.12 89.9761 7.4 90.5628 7.96C91.1761 8.49333 91.4828 9.17333 91.4828 10C91.4828 10.88 91.1895 11.6267 90.6028 12.24C90.0161 12.8267 89.2428 13.12 88.2828 13.12ZM96.5253 38V16.64H101.525V38H96.5253ZM99.0453 13.12C98.112 13.12 97.3386 12.8267 96.7253 12.24C96.1386 11.6533 95.8453 10.9467 95.8453 10.12C95.8453 9.26667 96.1386 8.56 96.7253 8C97.3386 7.41333 98.112 7.12 99.0453 7.12C99.9786 7.12 100.739 7.4 101.325 7.96C101.939 8.49333 102.245 9.17333 102.245 10C102.245 10.88 101.952 11.6267 101.365 12.24C100.779 12.8267 100.005 13.12 99.0453 13.12ZM116.888 38.28C114.701 38.28 112.754 37.8133 111.048 36.88C109.341 35.92 107.994 34.6133 107.008 32.96C106.021 31.3067 105.528 29.4267 105.528 27.32C105.528 25.1867 106.021 23.3067 107.008 21.68C107.994 20.0267 109.341 18.7333 111.048 17.8C112.754 16.8667 114.701 16.4 116.888 16.4C119.101 16.4 121.061 16.8667 122.768 17.8C124.501 18.7333 125.848 20.0133 126.808 21.64C127.794 23.2667 128.288 25.16 128.288 27.32C128.288 29.4267 127.794 31.3067 126.808 32.96C125.848 34.6133 124.501 35.92 122.768 36.88C121.061 37.8133 119.101 38.28 116.888 38.28ZM116.888 34C118.114 34 119.208 33.7333 120.168 33.2C121.128 32.6667 121.874 31.8933 122.408 30.88C122.968 29.8667 123.248 28.68 123.248 27.32C123.248 25.9333 122.968 24.7467 122.408 23.76C121.874 22.7467 121.128 21.9733 120.168 21.44C119.208 20.9067 118.128 20.64 116.928 20.64C115.701 20.64 114.608 20.9067 113.648 21.44C112.714 21.9733 111.968 22.7467 111.408 23.76C110.848 24.7467 110.568 25.9333 110.568 27.32C110.568 28.68 110.848 29.8667 111.408 30.88C111.968 31.8933 112.714 32.6667 113.648 33.2C114.608 33.7333 115.688 34 116.888 34ZM144.389 16.4C146.096 16.4 147.616 16.7333 148.949 17.4C150.309 18.0667 151.376 19.0933 152.149 20.48C152.922 21.84 153.309 23.6 153.309 25.76V38H148.309V26.4C148.309 24.5067 147.856 23.0933 146.949 22.16C146.069 21.2267 144.829 20.76 143.229 20.76C142.056 20.76 141.016 21 140.109 21.48C139.202 21.96 138.496 22.68 137.989 23.64C137.509 24.5733 137.269 25.76 137.269 27.2V38H132.269V16.64H137.029V22.4L136.189 20.64C136.936 19.28 138.016 18.24 139.429 17.52C140.869 16.7733 142.522 16.4 144.389 16.4Z" fill="currentColor"/>
</svg>
