<svg xmlns="http://www.w3.org/2000/svg" width="400" height="300" viewBox="0 0 400 300" fill="none">
<defs><linearGradient id="edge" x1="0" y1="0" x2="1" y2="1"><stop stop-color="#929d9b"/><stop offset="1" stop-color="#343e3c"/></linearGradient><linearGradient id="surface" x1="0" y1="0" x2="0" y2="1"><stop stop-color="#171b1b"/><stop offset="1" stop-color="#101212"/></linearGradient></defs>
<g stroke-linecap="round" stroke-linejoin="round" stroke-width="1"><g transform="matrix(.92 .48 -.92 .48 212 22)"><path d="M103 125v26M22 151h162M22 151v19M103 151v19M184 151v19" stroke="#5d8b7a" stroke-dasharray="3 4"/><rect x="45" y="0" width="116" height="125" rx="3" stroke="#3c4c43" fill="#101313"/><rect x="45" y="-8" width="116" height="125" rx="3" stroke="url(#edge)" fill="url(#surface)"/><rect x="55" y="4" width="96" height="53" rx="3" stroke="#53635b" fill="none"/><path d="M68 48l17-18 16 12 21-26 18 32" stroke="#768b7f"/><circle cx="77" cy="17" r="4" stroke="#61766a"/><path d="M57 70H132" stroke="#8d9c93"/><path d="M57 80H109" stroke="#4b5653"/><path d="M57 96H149" stroke="#394d41"/><rect x="57" y="103" width="32" height="5" rx="3" stroke="#68b59e" fill="none"/><rect x="0" y="174" width="44" height="53" rx="3" stroke="#4b5653" fill="#141818"/><circle cx="22.0" cy="190" r="6" stroke="#65716d"/><path d="M10 209C10 197 34 197 34 209" stroke="#65716d"/><path d="M10 218H34" stroke="#4b5653"/><rect x="81" y="174" width="44" height="53" rx="3" stroke="#4b5653" fill="#141818"/><circle cx="103.0" cy="190" r="6" stroke="#65716d"/><path d="M91 209C91 197 115 197 115 209" stroke="#65716d"/><path d="M91 218H115" stroke="#4b5653"/><rect x="162" y="174" width="44" height="53" rx="3" stroke="#4b5653" fill="#141818"/><circle cx="184.0" cy="190" r="6" stroke="#65716d"/><path d="M172 209C172 197 196 197 196 209" stroke="#65716d"/><path d="M172 218H196" stroke="#4b5653"/></g><path d="M330 128h16m-8-8v16" stroke="#425d4e"/><path d="M99 252h12m-6-6v12" stroke="#425d4e"/></g></svg>